<svg width="814" height="994" viewBox="0 0 814 994" fill="none" xmlns="http://www.w3.org/2000/svg">
<circle cx="165" cy="150" r="150" fill="#42ADFF"/>
<circle cx="593.5" cy="773.5" r="220.5" fill="#42ADFF"/>
<g clip-path="url(#clip0)">
<path d="M217.427 779.106C217.427 779.106 185.217 722.03 136.677 705.582C116.307 698.682 107.677 694.871 95.5166 677.128" stroke="#E6E6E6" stroke-width="2" stroke-miterlimit="10"/>
<path d="M108.626 727.036C115.908 724.515 132.434 704.02 132.434 704.02C132.434 704.02 106.757 698.145 99.4737 700.666C96.0905 701.959 93.3426 704.517 91.8107 707.799C90.2788 711.081 90.0829 714.83 91.2644 718.254C92.4459 721.678 94.9122 724.509 98.1422 726.147C101.372 727.786 105.113 728.105 108.574 727.037L108.626 727.036Z" fill="#E6E6E6"/>
<path d="M157.292 755.91C164.892 754.657 184.671 737.256 184.671 737.256C184.671 737.256 160.352 727.124 152.748 728.377C150.94 728.675 149.209 729.327 147.652 730.295C146.096 731.262 144.746 732.527 143.678 734.016C142.611 735.506 141.847 737.191 141.431 738.976C141.015 740.76 140.954 742.609 141.253 744.417C141.551 746.225 142.203 747.957 143.17 749.513C144.138 751.069 145.403 752.42 146.892 753.487C148.382 754.555 150.067 755.318 151.851 755.734C153.636 756.151 155.485 756.211 157.293 755.913L157.292 755.91Z" fill="#E6E6E6"/>
<path d="M86.7811 657.483C93.0874 661.902 103.398 686.156 103.398 686.156C103.398 686.156 77.0839 684.766 70.7711 680.351C69.2531 679.306 67.957 677.971 66.9576 676.422C65.9583 674.874 65.2754 673.143 64.9485 671.329C64.6216 669.515 64.6571 667.655 65.053 665.855C65.4488 664.055 66.1972 662.352 67.2549 660.842C68.3126 659.333 69.6587 658.049 71.2155 657.062C72.7723 656.076 74.5089 655.408 76.3253 655.096C78.1417 654.785 80.0017 654.836 81.7982 655.247C83.5946 655.658 85.2919 656.421 86.792 657.491L86.7811 657.483Z" fill="#E6E6E6"/>
<path d="M215.177 777.73C215.177 777.73 207.534 698.603 161.783 656.513C142.589 638.844 129.256 615.744 124.5 590.065C122.261 577.893 121.143 565.541 121.162 553.165" stroke="#535461" stroke-width="2" stroke-miterlimit="10"/>
<path d="M92.5083 526.47C95.9993 535.141 121.825 553.953 121.825 553.953C121.825 553.953 127.388 522.487 123.897 513.816C123.077 511.738 121.854 509.843 120.298 508.239C118.742 506.636 116.884 505.356 114.832 504.474C112.779 503.591 110.573 503.124 108.339 503.098C106.104 503.072 103.887 503.488 101.815 504.323C99.7425 505.157 97.8557 506.394 96.2631 507.961C94.6705 509.527 93.4035 511.394 92.5353 513.453C91.6671 515.511 91.2148 517.721 91.2043 519.955C91.1938 522.189 91.6254 524.404 92.4743 526.47H92.5083Z" fill="#42ADFF"/>
<path d="M85.904 584.944C93.547 590.32 125.455 592.078 125.455 592.078C125.455 592.078 113.03 562.642 105.387 557.258C103.57 555.969 101.516 555.052 99.344 554.559C97.1717 554.066 94.9235 554.006 92.7281 554.384C90.5328 554.761 88.4336 555.568 86.5509 556.759C84.6682 557.95 83.039 559.5 81.7568 561.322C80.4746 563.143 79.5646 565.2 79.079 567.374C78.5933 569.548 78.5416 571.796 78.9268 573.99C79.312 576.184 80.1265 578.281 81.3237 580.159C82.5208 582.038 84.077 583.662 85.903 584.938L85.904 584.944Z" fill="#42ADFF"/>
<path d="M120.118 666.542C129.46 667.323 157.86 652.733 157.86 652.733C157.86 652.733 132.271 633.573 122.955 632.817C120.714 632.579 118.448 632.792 116.29 633.442C114.132 634.092 112.126 635.166 110.389 636.602C108.652 638.037 107.219 639.806 106.175 641.802C105.13 643.799 104.495 645.984 104.306 648.23C104.117 650.475 104.378 652.736 105.075 654.879C105.771 657.022 106.888 659.005 108.361 660.711C109.834 662.416 111.632 663.811 113.651 664.812C115.67 665.813 117.868 666.401 120.118 666.542V666.542Z" fill="#42ADFF"/>
<path d="M159.898 722.459C168.951 724.803 199.432 715.223 199.432 715.223C199.432 715.223 177.444 692.038 168.399 689.694C166.245 689.127 163.999 688.991 161.792 689.294C159.585 689.597 157.459 690.332 155.537 691.458C153.615 692.585 151.934 694.079 150.591 695.856C149.248 697.634 148.268 699.659 147.709 701.815C147.15 703.972 147.023 706.217 147.334 708.423C147.644 710.629 148.388 712.752 149.521 714.67C150.654 716.589 152.155 718.264 153.937 719.601C155.719 720.938 157.747 721.91 159.906 722.461L159.898 722.459Z" fill="#42ADFF"/>
<path d="M159.101 580.468C155.313 589.02 128.867 606.948 128.867 606.948C128.867 606.948 124.367 575.312 128.145 566.769C129.045 564.737 130.336 562.901 131.945 561.368C133.554 559.834 135.449 558.632 137.522 557.831C139.596 557.03 141.806 556.645 144.029 556.698C146.251 556.751 148.441 557.242 150.473 558.141C152.506 559.041 154.341 560.332 155.875 561.941C157.409 563.55 158.61 565.445 159.411 567.519C160.213 569.592 160.598 571.803 160.544 574.025C160.491 576.247 160.001 578.437 159.101 580.469V580.468Z" fill="#42ADFF"/>
<path d="M204.79 646.449C198.624 653.473 168.025 662.673 168.025 662.673C168.025 662.673 173.197 631.139 179.363 624.124C182.324 620.752 186.503 618.694 190.981 618.404C195.459 618.113 199.869 619.613 203.241 622.574C206.613 625.535 208.67 629.714 208.961 634.192C209.251 638.67 207.751 643.08 204.79 646.452V646.449Z" fill="#42ADFF"/>
<path d="M240.409 716.675C235.483 724.641 206.909 738.884 206.909 738.884C206.909 738.884 206.671 706.934 211.563 698.968C212.726 697.072 214.252 695.424 216.052 694.117C217.852 692.811 219.892 691.872 222.055 691.354C224.219 690.835 226.463 690.749 228.659 691.098C230.856 691.447 232.963 692.225 234.859 693.388C236.755 694.552 238.403 696.077 239.709 697.877C241.016 699.678 241.955 701.717 242.473 703.881C242.991 706.044 243.078 708.288 242.729 710.485C242.38 712.681 241.601 714.788 240.438 716.684L240.409 716.675Z" fill="#42ADFF"/>
<path d="M356.31 827.137C553.095 827.137 712.62 816.691 712.62 803.807C712.62 790.922 553.095 780.477 356.31 780.477C159.525 780.477 0 790.922 0 803.807C0 816.691 159.525 827.137 356.31 827.137Z" fill="#E6E6E6"/>
<path opacity="0.1" d="M629.68 268.207C629.68 268.207 659.68 258.597 662.75 268.207H629.68Z" fill="black"/>
<path d="M366.33 304.297C366.33 304.297 373.111 268.724 394.941 268.543L410.887 301.369L400.253 308.703C400.253 308.703 377.145 309.437 366.33 304.297Z" fill="#D0CDE1"/>
<path opacity="0.502" d="M410.886 301.36L400.252 308.703C400.252 308.703 384.039 309.218 372.366 306.357C370.29 305.872 368.268 305.182 366.329 304.297C366.344 304.102 366.385 303.909 366.453 303.725C366.45 303.681 366.45 303.636 366.453 303.591C367.456 299.127 368.837 294.755 370.582 290.525C371.25 288.932 372.013 287.283 372.833 285.642C376.028 279.491 380.52 273.463 386.662 270.478C388.935 269.361 391.41 268.712 393.939 268.571H394.912L395.255 269.296L400.655 280.387L410.886 301.36Z" fill="black"/>
<path d="M592.069 449.173C592.069 449.173 614.958 446.973 617.008 448.62C619.058 450.267 632.048 458.71 639.744 453.388C647.44 448.066 642.309 429.546 642.309 428.811C642.309 428.076 641.584 401.86 641.584 401.86L627.822 383.339L610.589 350.914L575.379 347.433L576.333 398.933L576.152 425.341L592.069 449.173Z" fill="#D0CDE1"/>
<path opacity="0.503" d="M592.069 449.173C592.069 449.173 614.958 446.973 617.008 448.62C619.058 450.267 632.048 458.71 639.744 453.388C647.44 448.066 642.309 429.546 642.309 428.811C642.309 428.076 641.584 401.86 641.584 401.86L627.822 383.339L610.589 350.914L575.379 347.433L576.333 398.933L576.152 425.341L592.069 449.173Z" fill="black"/>
<path d="M390.345 267.628C390.345 267.628 388.523 290.002 374.58 290.364C374.58 290.364 370.632 287.98 365.32 284.012C353.075 274.847 333.638 257.232 339.008 240.848C346.714 217.378 384.118 260.656 384.118 260.656L386.979 263.879L390.345 267.628Z" fill="#FBBEBE"/>
<path opacity="0.1" d="M390.344 267.627C390.344 267.627 388.522 290.001 374.579 290.363C374.579 290.363 370.631 287.979 365.319 284.011L364.127 282.485C366.49 283.718 369.094 284.418 371.757 284.535C375.257 284.611 379.196 283.314 381.723 278.26C383.173 275.38 384.447 272.415 385.538 269.381C386.206 267.604 386.679 265.76 386.949 263.881L390.344 267.627Z" fill="black"/>
<path d="M384.297 308.15L381.159 304.116L370.573 290.526L365.194 283.583C367.555 284.823 370.16 285.526 372.824 285.643C376.324 285.719 380.263 284.422 382.8 279.358C384.251 276.479 385.525 273.513 386.615 270.479C388.36 265.529 388.322 262.979 387.715 262.125C387.108 261.271 391.606 265.453 393.771 267.504L393.847 267.58C394.467 268.152 394.867 268.534 394.867 268.534L395.239 269.278L400.551 279.902L400.608 280.35C401.092 283.726 402.885 305.117 384.297 308.15Z" fill="#E6E6E6"/>
<path d="M494.144 780.17C494.144 780.17 478.744 790.26 471.044 788.753C463.344 787.246 455.451 791.328 455.451 791.328C450.145 797.125 443.454 801.48 436.005 803.984C423.54 808.199 406.126 806.549 396.226 803.24C391.534 801.685 391.162 799.664 393.413 797.184C395.921 794.409 401.672 791.061 408.329 787.103C420.975 779.588 434.546 764.729 434.546 764.729C434.546 764.729 434.727 761.067 436.93 759.417C438.28 758.264 439.518 756.986 440.63 755.602C442.595 753.275 444.445 750.834 444.445 750.834L489.745 752.303C489.745 752.303 490.518 755.574 491.118 758.912C491.623 761.649 492.018 764.434 491.757 765.512C491.204 767.887 493.044 770.09 493.044 770.09L493.855 777.576L494.144 780.17Z" fill="#2F2E41"/>
<path d="M588.969 792.816C588.425 795.009 587.769 798.948 587.469 800.798C587.369 801.427 587.316 801.809 587.316 801.809C587.316 801.809 583.644 809.877 563.293 812.815C542.942 815.753 542.941 806.025 542.941 806.025C542.941 806.025 543.017 804.976 543.151 803.402C543.504 799.11 544.238 790.902 544.772 789.154C545.506 786.77 544.228 776.317 544.228 776.317L544.009 765.388L543.856 757.758L577.604 754.268C577.819 756.792 578.182 759.301 578.691 761.783C578.902 763.146 579.407 764.448 580.169 765.598C582 767.629 583.106 776.603 583.106 776.603C583.106 776.603 589.684 789.879 588.969 792.816Z" fill="#2F2E41"/>
<path opacity="0.1" d="M489.781 752.293C489.781 752.293 490.553 755.564 491.154 758.902C486.262 759.802 464.87 763.508 459.52 760.914C453.474 757.977 440.446 756.327 440.446 756.327L440.665 755.583C442.63 753.256 444.48 750.815 444.48 750.815L489.781 752.293Z" fill="black"/>
<path opacity="0.1" d="M578.67 761.821C570.087 760.371 551.375 763.881 543.994 765.388L543.841 757.758L577.583 754.268C577.796 756.804 578.159 759.327 578.67 761.821V761.821Z" fill="black"/>
<path d="M597.753 483.829L597.019 509.684C597.019 509.684 597.973 549.11 595.188 555.347C592.403 561.584 592.432 586.704 592.432 586.704C592.432 586.704 594.273 598.625 592.251 601.181C590.229 603.737 591.698 613.293 593.205 618.243C594.712 623.193 593.377 635.486 593.377 635.486L593.015 704.8C593.015 704.8 591.003 722.768 588.428 725.342C587.688 726.104 587.163 727.048 586.907 728.078C586.651 729.108 586.672 730.188 586.969 731.207C586.969 731.207 584.769 741.469 585.319 743.307C585.869 745.145 586.969 749.353 582.754 751.366C578.539 753.379 579.626 759.806 579.626 759.806C569.545 757.422 540.944 763.85 540.944 763.85C540.944 763.85 535.222 752.11 532.866 744.223C530.51 736.336 536.357 731.386 540.2 730.871C544.043 730.356 537.453 723.527 537.453 723.527C537.453 723.527 538.187 722.573 536.353 716.012C534.519 709.451 536.715 692.532 537.307 688.136C537.899 683.74 540.607 662.463 540.607 662.463C540.607 662.463 539.148 635.512 540.245 634.406C541.342 633.3 545.013 622.666 543.182 619.147C541.351 615.628 538.414 592.739 538.414 591.49C538.414 590.241 536.03 560.495 536.03 560.495C536.03 560.495 533.837 539.771 534.38 535.375C534.923 530.979 532.911 514.661 532.911 514.661C532.911 501.08 525.034 486.413 525.034 486.413L524.834 486.938L507.792 531.761C507.792 531.761 505.045 545.323 502.652 553.028C501.15 558.259 499.956 563.574 499.076 568.945L498.914 569.899C498.847 570.309 498.79 570.662 498.752 570.929L498.638 571.673C498.638 571.673 499.916 581.391 497.904 584.51C495.892 587.629 493.604 596.975 493.604 599.578C493.604 602.181 493.776 612.062 493.776 612.062C493.776 612.062 494.52 631.68 492.498 633.883C490.476 636.086 491.544 637.917 491.544 637.917C491.544 637.917 494.853 652.766 493.385 656.617C491.917 660.468 493.023 669.444 493.023 669.444C493.023 669.444 490.114 697.807 489.79 699.294C489.466 700.781 487.406 712.131 489.599 713.046C491.792 713.961 496.017 719.464 496.017 719.464C496.017 719.464 496.971 743.488 493.642 745.319C490.313 747.15 492.164 756.506 492.164 756.506C492.164 756.506 465.585 761.646 459.529 758.706C453.473 755.766 440.455 754.119 440.455 754.119L442.277 748.092C442.177 748.302 440.961 750.257 440.093 742.751C439.139 734.864 446.883 738.717 446.883 738.717C446.883 738.717 452.929 740.186 443.202 730.649C433.475 721.112 438.252 711.394 438.802 711.394C439.352 711.394 440.633 697.279 440.633 697.279C440.633 697.279 442.283 688.839 440.995 682.239C439.707 675.639 438.62 655.097 438.62 655.097C438.62 655.097 439.574 639.514 437.886 633.83C436.198 628.146 438.986 617.875 439.536 615.481C440.086 613.087 437.886 591.281 437.886 591.281C437.886 591.281 439.727 581.019 438.62 573.504C437.513 565.989 439.726 538.294 439.726 538.294L443.026 506.383C443.026 506.383 445.401 496.483 445.038 492.45C444.675 488.417 447.785 474.33 447.785 474.33C447.785 474.33 447.423 469.19 449.254 465.53C451.085 461.87 451.829 449.765 451.829 449.765L469.434 409.414L478.017 373.841L594.463 372.741C594.463 372.741 594.892 375.821 595.588 381.429C596.284 387.037 597.295 395.343 598.449 405.586C599.46 414.894 600.566 425.842 601.649 438.012C605.087 476.857 597.753 483.829 597.753 483.829Z" fill="#2F2E41"/>
<path d="M586.938 162.731L559.786 191.714C559.786 191.714 524.957 177.771 528.619 173.003C530.04 171.153 529.811 165.373 528.991 158.903C527.704 148.756 524.957 137.054 524.957 137.054C524.957 137.054 585.831 127.154 580.691 137.416C578.784 141.174 579.146 145.551 580.31 149.595C581.797 154.301 584.035 158.736 586.938 162.727V162.731Z" fill="#FBBEBE"/>
<path opacity="0.1" d="M580.692 137.42C578.785 141.178 577.926 141.54 579.099 145.584C571.136 154.167 560.979 163.466 548.428 163.466C541.683 163.477 535.029 161.916 528.992 158.907C527.705 148.76 524.958 137.058 524.958 137.058C524.958 137.058 585.832 127.158 580.692 137.42Z" fill="black"/>
<path d="M592.069 118.719C592.069 130.296 587.47 141.399 579.284 149.585C571.098 157.771 559.995 162.369 548.419 162.369C536.842 162.369 525.739 157.771 517.553 149.585C509.367 141.399 504.769 130.296 504.769 118.719C504.769 118.509 504.769 118.299 504.769 118.09C504.852 106.516 509.53 95.4489 517.773 87.3236C526.016 79.1983 537.15 74.6804 548.724 74.7638C560.298 74.8472 571.365 79.5251 579.491 87.7684C587.616 96.0116 592.134 107.145 592.051 118.719H592.069Z" fill="#FBBEBE"/>
<path opacity="0.1" d="M598.392 406.647C592.613 406.695 573.358 406.857 551.842 407.2H551.584L544.473 407.32H544.254C518.743 407.73 493.603 402.742 483.513 403.696C462.055 405.708 491.213 383.888 491.213 383.888C507.202 387.769 523.649 389.431 540.09 388.828L546.26 388.513C565.76 387.407 585.36 385.576 595.585 382.505C596.294 388.165 597.286 396.443 598.392 406.647Z" fill="black"/>
<path d="M598.392 405.551C592.613 405.551 573.358 405.761 551.842 406.095H551.584L544.469 406.219H544.25C518.739 406.629 493.599 401.641 483.509 402.585C462.051 404.597 491.209 382.785 491.209 382.785C507.199 386.66 523.645 388.322 540.086 387.725L546.256 387.401C565.756 386.301 585.356 384.464 595.581 381.393C596.294 387.059 597.286 395.308 598.392 405.551Z" fill="#7C5C5C"/>
<path opacity="0.1" d="M536.688 174.834L502.946 190.608L476.911 391.951C476.911 391.951 492.311 384.989 501.111 389.386C509.911 393.783 537.046 389.758 537.046 389.758C537.046 389.758 556.854 388.652 559.791 390.858C562.728 393.064 597.191 381.693 597.191 381.693C597.191 381.693 603.428 367.75 598.66 365.557C593.892 363.364 600.129 341.715 600.129 341.715L597.192 196.477L591.327 177.777L575.561 168.234L559.405 181.071L551.775 182.171L536.688 174.834Z" fill="black"/>
<path d="M536.688 172.631L502.946 188.405L476.911 389.766C476.911 389.766 492.311 382.795 501.111 387.201C509.911 391.607 537.046 387.563 537.046 387.563C537.046 387.563 556.854 386.463 559.791 388.663C562.728 390.863 597.191 379.498 597.191 379.498C597.191 379.498 603.428 365.565 598.66 363.362C593.892 361.159 600.129 339.52 600.129 339.52L597.192 194.263L591.327 175.563L575.561 166.021L559.405 178.867L551.775 179.954L536.688 172.631Z" fill="#E6E6E6"/>
<path opacity="0.1" d="M536.135 181.987C536.135 181.987 545.853 193.536 545.672 195.92C545.491 198.304 545.128 203.988 545.128 203.988L537.785 218.847C537.785 218.847 533.751 237.368 533.751 241.221C533.751 245.074 527.333 278.415 527.333 278.415L519.633 329.762L509.915 397.062L519.815 414.114L531.555 404.214L547.138 284.278L550.438 260.626C550.438 260.626 553.919 218.082 553.919 213.685C553.919 209.288 551.907 197.73 551.907 197.73C551.907 197.73 554.291 186.724 564.191 184.159C574.091 181.594 563.457 183.606 563.457 183.606L557.735 179.019L552.785 181.041C552.785 181.041 539.072 176.856 536.135 181.987Z" fill="black"/>
<path d="M535.038 180.908C535.038 180.908 544.756 192.457 544.575 194.841C544.394 197.225 544.022 202.909 544.022 202.909L536.688 217.768C536.688 217.768 532.702 236.268 532.702 240.113C532.702 243.958 526.284 277.307 526.284 277.307L518.53 328.73L508.859 395.985L518.768 413.047L530.451 403.119L546.051 283.211L549.351 259.559C549.351 259.559 552.832 217.015 552.832 212.609C552.832 208.203 550.82 196.654 550.82 196.654C550.82 196.654 553.204 185.654 563.104 183.083C573.004 180.512 562.37 182.539 562.37 182.539L556.648 177.952L551.775 179.952C551.775 179.952 537.975 175.752 535.038 180.908Z" fill="#2F2E41"/>
<path opacity="0.1" d="M528.62 161.634C528.62 161.634 527.151 162.734 526.789 170.065C526.427 177.396 521.289 193.907 521.289 193.907C521.289 193.907 540.363 180.698 549.9 182.167L528.62 161.634Z" fill="black"/>
<path d="M528.62 159.432C528.62 159.432 527.151 160.532 526.789 167.872C526.427 175.212 521.289 191.714 521.289 191.714C521.289 191.714 540.363 178.514 549.9 179.984L528.62 159.432Z" fill="#E6E6E6"/>
<path opacity="0.1" d="M580.701 155.76L550.622 182.168C550.622 182.168 575.933 197.208 579.233 200.879C582.533 204.55 585.832 164.93 585.832 164.93L580.701 155.76Z" fill="black"/>
<path d="M581.798 153.566L551.776 179.955C551.776 179.955 577.076 194.985 580.387 198.655C583.698 202.325 586.996 162.71 586.996 162.71L581.798 153.566Z" fill="#E6E6E6"/>
<path opacity="0.1" d="M529.717 161.635C529.717 161.635 526.417 159.985 523.299 164.754C520.181 169.523 514.315 171.716 514.315 171.716C514.315 171.716 480.936 177.038 479.658 181.434L464.075 182.388C464.075 182.388 458.575 183.113 458.019 194.672C457.463 206.231 454.5 207.299 454.5 207.299C454.5 207.299 448.082 218.667 448.625 224.532C449.168 230.397 443.675 233.332 443.675 233.332L466.564 292.932C466.564 292.932 467.298 317.509 463.074 326.492C458.85 335.475 450.974 375.273 450.974 375.273C450.974 375.273 454.283 374.539 454.093 376.732C453.903 378.925 450.059 402.959 450.059 402.959C450.059 402.959 448.959 412.496 447.131 415.796C445.303 419.096 445.109 436.339 445.109 436.339L442.172 448.804C442.172 448.804 449.143 464.397 459.777 462.156C470.411 459.915 489.79 418.382 489.79 418.382L502.074 373.454L511.611 329.079L514.358 299.009L518.764 232.441L525.182 188.428C525.182 188.428 532.292 164.758 529.717 161.635Z" fill="black"/>
<path d="M528.62 159.432C528.62 159.432 525.32 157.782 522.202 162.551C519.084 167.32 513.218 169.522 513.218 169.522C513.218 169.522 479.839 174.834 478.561 179.24L462.968 180.194C462.968 180.194 457.468 180.928 456.922 192.478C456.376 204.028 453.432 205.133 453.432 205.133C453.432 205.133 447.014 216.501 447.567 222.366C448.12 228.231 442.617 231.166 442.617 231.166L465.506 290.766C465.506 290.766 466.24 315.343 462.025 324.326C457.81 333.309 449.925 373.107 449.925 373.107C449.925 373.107 453.225 372.373 453.044 374.576C452.863 376.779 449.01 400.793 449.01 400.793C449.01 400.793 447.91 410.33 446.073 413.63C444.236 416.93 444.061 434.173 444.061 434.173L441.147 446.598C441.147 446.598 448.118 462.191 458.752 459.95C469.386 457.709 488.641 416.128 488.641 416.128L500.934 371.2L510.471 326.815L513.227 296.745L517.627 230.177L524.045 186.164C524.045 186.164 531.185 162.55 528.62 159.432Z" fill="#2F2E41"/>
<path opacity="0.1" d="M410.887 301.36L400.253 308.707C400.253 308.707 384.04 309.222 372.367 306.361L366.454 303.729L365.262 303.214L366.483 303.595C372.615 305.417 377.412 305.378 381.16 304.12C396.209 299.056 394.512 274.203 393.968 268.576C393.911 268.013 393.868 267.622 393.844 267.508C393.841 267.486 393.841 267.464 393.844 267.441L393.93 267.584C394.135 267.922 394.369 268.242 394.63 268.538C394.84 268.776 395.059 269.024 395.298 269.253L400.61 279.877L400.667 280.325L410.887 301.36Z" fill="black"/>
<path d="M447.747 229.661L442.616 231.13L441.882 241.621C441.882 241.621 435.826 240.667 434.176 247.858C432.526 255.049 429.598 258.349 429.598 258.349C429.598 258.349 419.508 266.789 418.955 273.932L412.727 277.747C412.727 277.747 398.227 274.371 394.941 268.547C394.941 268.547 401.541 315.86 366.33 304.301C366.33 304.301 405.756 321.544 407.587 323.928C409.418 326.312 421.53 333.274 432.526 327.409C443.522 321.544 445.916 312.522 445.916 312.522C445.916 312.522 456.55 297.664 456.922 295.46C457.294 293.256 465.505 290.692 465.505 290.692L481.28 252.541L447.747 229.661Z" fill="#2F2E41"/>
<path opacity="0.1" d="M576.486 177.771L581.798 153.571C581.798 153.571 584.182 161.458 586.567 163.289L594.454 169.335C594.454 169.335 602.341 173.007 605.088 173.007C607.835 173.007 622.693 176.822 624.524 178.872C626.355 180.922 633.699 179.425 633.699 179.425C633.699 179.425 639.745 181.437 645.067 182.725C650.389 184.013 652.954 192.815 651.848 196.296C651.405 198.03 651.409 199.847 651.859 201.578C652.31 203.31 653.192 204.899 654.423 206.196C656.616 208.396 657.723 215.552 657.723 215.552C660.42 216.43 662.659 218.34 663.951 220.864C665.792 224.898 665.239 233.701 665.239 233.701L637.916 272.211C637.916 272.211 638.278 287.07 637.182 290.331C636.086 293.592 640.997 349.746 640.997 349.746L646.719 446.202C646.719 446.202 639.204 452.62 637.554 453.355C635.904 454.09 634.245 419.241 634.245 417.964C634.245 416.687 591.892 354.515 591.892 354.515C591.892 354.515 586.17 345.341 586.17 343.328C586.17 341.315 580.848 322.785 580.848 322.785L572.776 287.026L576.486 177.771Z" fill="black"/>
<path d="M667.507 231.597C667.507 232.856 667.44 233.697 667.44 233.697L640.14 272.178C640.14 272.178 640.522 287.027 639.415 290.298C638.776 292.205 640.178 311.947 641.475 328.15C642.429 339.85 643.268 349.713 643.268 349.713L645.681 390.626L648.943 446.169C648.943 446.169 641.428 452.587 639.778 453.322C638.128 454.057 636.478 419.208 636.478 417.922C636.478 416.636 594.115 354.482 594.115 354.482C594.115 354.482 588.393 345.308 588.393 343.295C588.393 341.282 583.081 322.752 583.081 322.752L575.013 286.989L578.675 177.706L581.794 153.506C581.794 153.506 586.381 161.393 588.765 163.215C591.149 165.037 596.643 169.271 596.643 169.271C596.643 169.271 604.53 172.943 607.286 172.943C610.042 172.943 624.891 176.758 626.722 178.808C628.553 180.858 635.897 179.361 635.897 179.361C635.897 179.361 641.943 181.373 647.255 182.661C652.567 183.949 655.142 192.751 654.045 196.222C653.599 197.956 653.6 199.774 654.049 201.507C654.497 203.24 655.378 204.831 656.61 206.131C658.81 208.331 659.91 215.477 659.91 215.477C662.611 216.361 664.853 218.277 666.147 220.808C667.43 223.653 667.554 228.739 667.507 231.597Z" fill="#2F2E41"/>
<path opacity="0.1" d="M443.35 720.202C444.304 720.202 482.776 721.671 482.041 727.908C481.306 734.145 443.35 720.202 443.35 720.202Z" fill="black"/>
<path opacity="0.1" d="M451.972 730.654C451.972 730.654 477.827 734.869 471.046 738.722C464.265 742.575 451.972 730.654 451.972 730.654Z" fill="black"/>
<path opacity="0.1" d="M548.056 716.168C548.056 716.168 590.972 719.84 584.556 724.599C578.14 729.358 562.917 730.099 562.182 730.321C561.447 730.543 548.056 716.168 548.056 716.168Z" fill="black"/>
<path opacity="0.1" d="M542.925 735.061C542.925 735.061 566.767 739.095 567.492 743.644C568.217 748.193 542.925 735.061 542.925 735.061Z" fill="black"/>
<path opacity="0.1" d="M556.124 624.661C556.124 624.661 577.944 629.792 579.232 633.244L556.124 624.661Z" fill="black"/>
<path opacity="0.1" d="M471.95 640.436C471.95 640.436 460.582 643.736 471.588 650.336C482.594 656.936 471.95 640.436 471.95 640.436Z" fill="black"/>
<path opacity="0.1" d="M522.383 464.203C523.67 464.203 543.66 457.603 550.622 460.541C557.584 463.479 566.215 463.469 566.215 463.469L522.383 464.203Z" fill="black"/>
<path opacity="0.1" d="M524.958 485.137L524.758 486.949L507.716 531.772C507.716 531.772 504.969 545.332 502.576 553.038C501.074 558.27 499.88 563.585 499 568.955L514.138 475.104L524.958 485.137Z" fill="black"/>
<path d="M551.585 406.094L544.47 406.218H544.251L540.083 387.735C542.133 387.635 544.183 387.525 546.253 387.401L551.585 406.094Z" fill="#2F2E41"/>
<path d="M638.095 383.717L633.527 387.475L618.271 400.017C618.271 400.017 577.005 422.028 565.637 401.123C555.614 382.707 602.402 369.556 613.665 366.685C615.2 366.294 616.065 366.103 616.065 366.103L638.095 383.717Z" fill="#FBBEBE"/>
<path opacity="0.1" d="M461.871 203.444C461.871 203.444 469.939 207.106 471.771 212.244C473.603 217.382 461.871 203.444 461.871 203.444Z" fill="black"/>
<path opacity="0.1" d="M436.932 258.453C436.932 258.453 425.192 272.758 429.961 278.261C434.73 283.764 436.932 258.453 436.932 258.453Z" fill="black"/>
<path opacity="0.1" d="M646.718 211.513C646.718 211.513 635.712 212.613 635.35 222.147L646.718 211.513Z" fill="black"/>
<path opacity="0.1" d="M544.756 361.881C545.856 360.781 571.164 323.371 577.029 326.671L544.756 361.881Z" fill="black"/>
<path opacity="0.1" d="M592.069 118.718C592.078 125.906 590.306 132.983 586.91 139.318L586.586 139.261C583.82 138.679 582.38 135.446 580.263 133.443C578.965 132.206 577.312 131.407 575.537 131.157C573.761 130.907 571.952 131.22 570.363 132.051C568.758 133.013 567.452 134.404 566.593 136.066C565.734 137.729 565.355 139.598 565.499 141.464C564.107 135.589 564.545 129.343 563.181 123.458C561.817 117.573 557.707 111.623 552.09 111.518C549.668 111.518 546.835 112.418 545.09 110.564C544.031 109.464 543.812 107.703 543.02 106.415C539.005 99.9153 526.807 103.201 521.791 106.529C516.965 109.729 510.991 115.189 504.791 118.05C504.874 106.476 509.552 95.4089 517.796 87.2836C521.877 83.2603 526.711 80.0804 532.022 77.9254C537.332 75.7704 543.016 74.6825 548.747 74.7238C554.478 74.7651 560.144 75.9348 565.423 78.1661C570.702 80.3974 575.49 83.6467 579.513 87.7283C583.536 91.81 586.716 96.6441 588.871 101.955C591.026 107.265 592.114 112.948 592.073 118.679L592.069 118.718Z" fill="black"/>
<path d="M543.02 105.348C543.82 106.674 544.031 108.409 545.09 109.497C546.835 111.309 549.668 110.384 552.09 110.451C557.707 110.551 561.818 116.507 563.181 122.391C564.544 128.275 564.135 134.512 565.498 140.391C565.355 138.526 565.736 136.658 566.597 134.998C567.458 133.337 568.765 131.949 570.371 130.991C571.958 130.161 573.765 129.848 575.538 130.096C577.311 130.344 578.963 131.141 580.261 132.374C582.378 134.386 583.818 137.61 586.584 138.192C589.35 138.774 592.02 136.122 593.012 133.204C594.004 130.286 593.966 127.091 594.595 124.068C595.844 118.346 599.573 113.668 601.643 108.227C604.099 101.607 604.031 94.315 601.452 87.7422C600.079 84.2992 598.028 81.2002 596.684 77.7572C594.567 72.5312 582.827 65.4932 580.261 60.5142C575.941 52.1792 578.726 57.3762 570.371 60.5142C566.385 62.0142 561.158 56.6802 557.115 58.0062C551.688 59.7422 545.9 58.4352 540.282 57.6532C534.664 56.8712 528.475 56.7952 523.964 60.5142C518.776 64.7582 517.355 72.7402 512.52 77.4042C510.47 79.3592 507.92 80.6042 505.758 82.4202C503.596 84.2362 501.733 86.9202 501.943 89.8682C502.267 93.6832 505.987 97.1162 504.613 100.635C504.117 101.652 503.427 102.562 502.582 103.315C498.492 107.595 495.452 112.766 493.703 118.421C503.516 121.482 514.141 110.667 521.818 105.556C526.789 102.143 539.005 98.8912 543.02 105.348Z" fill="#2F2E41"/>
<path opacity="0.1" d="M638.094 383.716L633.526 387.474C629.501 380.798 612.974 367.38 612.974 367.38L613.689 366.693C615.224 366.302 616.089 366.111 616.089 366.111L638.094 383.716Z" fill="black"/>
<path d="M642.5 376.921C642.5 376.921 640.86 381.003 639.162 384.551C637.464 388.099 635.624 391.284 635.528 388.681C635.347 383.541 614.08 366.298 614.08 366.298L616.941 363.498L620.288 360.255L642.5 376.921Z" fill="#E6E6E6"/>
<path opacity="0.1" d="M643.235 349.778L645.648 390.691C639.926 381.831 624.314 359.124 614.248 359.858L638.648 331.81C639.662 330.676 640.595 329.473 641.442 328.21C642.376 339.917 643.235 349.778 643.235 349.778Z" fill="black"/>
<path opacity="0.1" d="M642.5 376.921C642.5 376.921 640.86 381.003 639.162 384.551C632.772 375.787 623.979 365.43 616.962 363.494L620.309 360.251L642.5 376.921Z" fill="black"/>
<path d="M660.839 228.593L667.439 233.724C667.439 233.724 678.439 233.915 679.539 243.08C680.639 252.245 690.726 256.432 690.726 256.432C690.726 256.432 698.241 263.947 698.241 267.432C698.241 270.917 703.963 277.16 703.963 277.703C703.963 278.246 709.463 289.443 708.731 291.455C707.999 293.467 714.596 302.279 712.546 305.579C710.887 308.538 709.415 311.599 708.14 314.744C708.14 314.744 699.557 331.252 695.122 334.371C690.687 337.49 670.555 363.707 670.555 363.707C670.555 363.707 648.916 388.646 648.916 396.352C648.916 396.352 627.816 361.142 615.356 362.019L639.742 333.961C639.742 333.961 643.967 329.383 644.148 326.627C644.329 323.871 655.878 311.227 661.381 310.672C661.381 310.672 662.335 303.157 659.912 302.972C657.489 302.787 655.512 296.916 655.512 296.916C655.512 296.916 639.376 277.842 639.194 265.74C639.012 253.638 660.839 228.593 660.839 228.593Z" fill="#2F2E41"/>
<path opacity="0.1" d="M670.558 245.988C670.558 245.988 655.146 257.356 658.458 261.018C661.77 264.68 670.558 245.988 670.558 245.988Z" fill="black"/>
<path opacity="0.1" d="M494.144 780.17C494.144 780.17 478.744 790.26 471.044 788.753C463.344 787.246 455.451 791.328 455.451 791.328C450.145 797.125 443.454 801.48 436.005 803.984C423.54 808.199 406.126 806.549 396.226 803.24C391.534 801.685 391.162 799.664 393.413 797.184C404.18 799.33 428.242 803.593 434.727 800.493C443.158 796.459 455.26 787.656 455.26 787.656C455.26 787.656 471.044 785.456 473.237 785.456C474.801 785.456 486.98 780.43 493.856 777.54L494.144 780.17Z" fill="black"/>
<path opacity="0.1" d="M469.482 243.785C469.482 243.785 469.482 285.595 465.906 289.724C462.33 293.853 469.482 243.785 469.482 243.785Z" fill="black"/>
<path opacity="0.1" d="M634.794 257.262L640.106 272.202C640.106 272.202 642.223 257.539 634.794 257.262Z" fill="black"/>
<g opacity="0.1">
<path opacity="0.1" d="M505.131 96.9842C506.476 93.5412 502.957 90.1752 502.499 86.4932C502.03 87.5336 501.827 88.674 501.908 89.8122C502.146 92.5872 504.197 95.1912 504.769 97.7562C504.915 97.511 505.036 97.2521 505.131 96.9832V96.9842Z" fill="black"/>
<path opacity="0.1" d="M565.997 136.476C564.681 130.687 565.043 124.564 563.727 118.785C562.411 113.006 558.262 106.94 552.645 106.845C550.223 106.845 547.39 107.732 545.635 105.891C544.586 104.804 544.367 103.03 543.575 101.742C539.56 95.2418 527.362 98.5418 522.336 101.866C514.83 106.854 504.531 117.278 494.917 114.912C494.45 116.028 494.017 117.153 493.668 118.312C503.481 121.373 514.106 110.558 521.783 105.447C526.79 102.119 539.007 98.7708 543.022 105.323C543.822 106.649 544.033 108.384 545.092 109.472C546.837 111.284 549.67 110.359 552.092 110.426C557.709 110.526 561.82 116.482 563.183 122.366C564.546 128.25 564.137 134.487 565.5 140.366C565.407 139.051 565.577 137.732 566 136.484L565.997 136.476Z" fill="black"/>
<path opacity="0.1" d="M593.566 129.59C592.612 132.508 589.951 135.179 587.129 134.578C584.307 133.977 582.923 130.763 580.816 128.76C579.517 127.525 577.863 126.727 576.088 126.479C574.312 126.231 572.504 126.545 570.916 127.377C569.386 128.291 568.129 129.597 567.274 131.159C566.419 132.722 565.997 134.485 566.052 136.265C566.784 134.021 568.324 132.128 570.372 130.953C571.958 130.123 573.765 129.811 575.538 130.059C577.312 130.307 578.963 131.103 580.262 132.336C582.379 134.348 583.819 137.572 586.585 138.154C589.351 138.736 592.021 136.084 593.013 133.166C593.538 131.453 593.877 129.688 594.024 127.902C593.905 128.474 593.752 129.037 593.566 129.59V129.59Z" fill="black"/>
<path opacity="0.1" d="M602.187 104.611C600.127 110.047 596.387 114.739 595.149 120.461C594.901 121.615 594.758 122.798 594.615 123.98C595.874 118.258 599.584 113.604 601.644 108.187C602.561 105.734 603.133 103.166 603.344 100.557C603.062 101.935 602.677 103.29 602.19 104.61L602.187 104.611Z" fill="black"/>
</g>
<path d="M352.52 241.345L352.45 241.381C352.262 241.475 352.187 241.704 352.281 241.891L355.038 247.362C355.132 247.549 355.361 247.624 355.548 247.53L355.619 247.494C355.806 247.4 355.882 247.171 355.787 246.984L353.031 241.514C352.936 241.326 352.708 241.251 352.52 241.345Z" fill="#3A3768"/>
<path d="M344.704 230.847L323.751 241.405C322.647 241.962 322.202 243.309 322.759 244.413L346.304 291.137C346.861 292.242 348.207 292.686 349.312 292.129L370.265 281.571C371.369 281.014 371.814 279.667 371.257 278.563L347.712 231.839C347.155 230.734 345.809 230.29 344.704 230.847Z" fill="#3A3768"/>
<path d="M341.887 233.886C341.765 233.941 341.656 234.02 341.567 234.119C341.478 234.218 341.41 234.335 341.369 234.461C341.328 234.588 341.313 234.722 341.327 234.855C341.341 234.987 341.382 235.116 341.448 235.231L341.548 235.412C341.614 235.529 341.655 235.657 341.668 235.791C341.681 235.924 341.666 236.058 341.623 236.185C341.581 236.311 341.513 236.428 341.423 236.527C341.332 236.625 341.222 236.704 341.1 236.757L330.524 242.088C330.408 242.155 330.28 242.196 330.147 242.209C330.015 242.223 329.881 242.209 329.754 242.167C329.627 242.126 329.511 242.059 329.412 241.969C329.313 241.88 329.233 241.771 329.179 241.649L329.079 241.458C329.025 241.337 328.945 241.228 328.846 241.138C328.747 241.049 328.631 240.982 328.504 240.94C328.377 240.899 328.243 240.885 328.111 240.898C327.978 240.912 327.85 240.953 327.734 241.019L325.674 242.049C325.448 242.162 325.247 242.318 325.082 242.508C324.917 242.699 324.791 242.92 324.712 243.16C324.633 243.399 324.602 243.652 324.622 243.903C324.641 244.155 324.71 244.4 324.825 244.624L347.325 289.285C347.437 289.511 347.593 289.712 347.784 289.878C347.974 290.043 348.196 290.168 348.435 290.247C348.675 290.326 348.928 290.357 349.179 290.338C349.43 290.318 349.675 290.249 349.9 290.134L368.354 280.834C368.578 280.722 368.779 280.567 368.943 280.377C369.107 280.187 369.232 279.966 369.311 279.728C369.39 279.49 369.421 279.238 369.402 278.988C369.384 278.738 369.316 278.493 369.203 278.269L346.732 233.601C346.619 233.378 346.463 233.179 346.272 233.015C346.082 232.852 345.862 232.728 345.623 232.65C345.385 232.572 345.134 232.542 344.884 232.561C344.634 232.581 344.39 232.649 344.167 232.762L341.887 233.886Z" fill="#42ADFF"/>
<path opacity="0.1" d="M223.78 758.196H187.312V763.971H223.78V758.196Z" fill="black"/>
<path d="M305.12 237.441V351.194C305.123 352.694 304.829 354.179 304.257 355.565C303.684 356.951 302.844 358.21 301.783 359.27C300.723 360.331 299.464 361.171 298.078 361.744C296.692 362.316 295.207 362.61 293.707 362.607H281.449V226.038H293.706C295.205 226.035 296.689 226.328 298.074 226.9C299.459 227.472 300.718 228.311 301.778 229.37C302.838 230.429 303.679 231.687 304.252 233.071C304.825 234.456 305.12 235.94 305.119 237.438L305.12 237.441Z" fill="#D0CDE1"/>
<path opacity="0.2" d="M295.814 240.617V348.532C295.12 348.647 294.417 348.705 293.714 348.703H291.96V240.446H293.718C294.42 240.445 295.121 240.502 295.814 240.617V240.617Z" fill="black"/>
<path d="M251.006 402.744H206.814V757.084H251.006V402.744Z" fill="#D0CDE1"/>
<path d="M175.775 751.526H276.958C288.067 751.526 298.721 755.939 306.576 763.795C314.432 771.65 318.845 782.304 318.845 793.413V799.856H133.888V793.413C133.888 782.304 138.301 771.65 146.156 763.795C154.011 755.939 164.666 751.526 175.775 751.526V751.526Z" fill="#D0CDE1"/>
<path opacity="0.1" d="M251.006 451.526H206.814V494.03H251.006V451.526Z" fill="black"/>
<path opacity="0.1" d="M251.006 448.634H206.814V491.138H251.006V448.634Z" fill="black"/>
<path d="M255.606 450.075H202.718V492.579H255.606V450.075Z" fill="#D0CDE1"/>
<path d="M274.811 376.049V393.689C274.811 395.862 274.383 398.014 273.551 400.022C272.719 402.03 271.5 403.854 269.963 405.391C268.426 406.928 266.602 408.146 264.594 408.978C262.586 409.81 260.434 410.238 258.261 410.238H199.6C195.211 410.238 191.001 408.494 187.898 405.39C184.794 402.287 183.051 398.078 183.051 393.689V376.049C183.054 371.662 184.799 367.457 187.902 364.357C191.006 361.258 195.214 359.518 199.6 359.521H258.261C262.647 359.518 266.855 361.258 269.958 364.357C273.062 367.457 274.807 371.662 274.81 376.049H274.811Z" fill="#D0CDE1"/>
<path opacity="0.1" d="M274.811 376.049V377.849C269.424 384.91 262.48 390.634 254.519 394.573C246.559 398.513 237.797 400.562 228.915 400.562C220.033 400.562 211.271 398.513 203.311 394.573C195.35 390.634 188.407 384.91 183.02 377.849V376.049C183.022 371.662 184.768 367.457 187.871 364.357C190.975 361.258 195.182 359.518 199.569 359.521H258.231C260.405 359.515 262.559 359.939 264.57 360.767C266.58 361.595 268.408 362.811 269.948 364.346C271.488 365.881 272.71 367.705 273.545 369.713C274.379 371.721 274.809 373.874 274.811 376.049V376.049Z" fill="black"/>
<path d="M175.857 211.691H281.974C283.211 211.691 284.397 212.183 285.271 213.057C286.145 213.931 286.636 215.117 286.636 216.353V349.115C286.636 362.383 281.366 375.108 271.984 384.49C262.602 393.872 249.877 399.142 236.609 399.142H221.222C207.954 399.142 195.23 393.872 185.848 384.49C176.466 375.108 171.195 362.383 171.195 349.115V216.353C171.195 215.117 171.686 213.931 172.561 213.057C173.435 212.183 174.621 211.691 175.857 211.691V211.691Z" fill="#D0CDE1"/>
<path d="M195.047 159.349H261.947C271.757 159.349 279.71 165.536 279.71 173.169V212.763C279.71 215.514 276.844 217.743 273.31 217.743H183.685C180.15 217.743 177.285 215.513 177.285 212.763V173.163C177.285 165.531 185.238 159.343 195.048 159.343L195.047 159.349Z" fill="#D0CDE1"/>
<path opacity="0.2" d="M263.67 189.667H191.721V194.977H263.67V189.667Z" fill="black"/>
<path opacity="0.1" d="M274.8 228.734H183.03V295.331H274.8V228.734Z" fill="black"/>
<path d="M274.8 227.283H183.03V293.88H274.8V227.283Z" fill="#42ADFF"/>
<g opacity="0.1">
<path opacity="0.1" d="M203.4 305.293H184.335C183.899 305.293 183.545 305.647 183.545 306.083V311.872C183.545 312.308 183.899 312.662 184.335 312.662H203.4C203.836 312.662 204.19 312.308 204.19 311.872V306.083C204.19 305.647 203.836 305.293 203.4 305.293Z" fill="black"/>
<path opacity="0.1" d="M226.762 305.293H207.697C207.261 305.293 206.907 305.647 206.907 306.083V311.872C206.907 312.308 207.261 312.662 207.697 312.662H226.762C227.199 312.662 227.552 312.308 227.552 311.872V306.083C227.552 305.647 227.199 305.293 226.762 305.293Z" fill="black"/>
<path opacity="0.1" d="M250.124 305.293H231.059C230.622 305.293 230.269 305.647 230.269 306.083V311.872C230.269 312.308 230.622 312.662 231.059 312.662H250.124C250.56 312.662 250.914 312.308 250.914 311.872V306.083C250.914 305.647 250.56 305.293 250.124 305.293Z" fill="black"/>
<path opacity="0.1" d="M273.496 305.293H254.431C253.994 305.293 253.641 305.647 253.641 306.083V311.872C253.641 312.308 253.994 312.662 254.431 312.662H273.496C273.932 312.662 274.286 312.308 274.286 311.872V306.083C274.286 305.647 273.932 305.293 273.496 305.293Z" fill="black"/>
<path opacity="0.1" d="M203.4 319.722H184.335C183.899 319.722 183.545 320.075 183.545 320.512V326.301C183.545 326.737 183.899 327.091 184.335 327.091H203.4C203.836 327.091 204.19 326.737 204.19 326.301V320.512C204.19 320.075 203.836 319.722 203.4 319.722Z" fill="black"/>
<path opacity="0.1" d="M226.762 319.722H207.697C207.261 319.722 206.907 320.075 206.907 320.512V326.301C206.907 326.737 207.261 327.091 207.697 327.091H226.762C227.199 327.091 227.552 326.737 227.552 326.301V320.512C227.552 320.075 227.199 319.722 226.762 319.722Z" fill="black"/>
<path opacity="0.1" d="M250.124 319.722H231.059C230.622 319.722 230.269 320.075 230.269 320.512V326.301C230.269 326.737 230.622 327.091 231.059 327.091H250.124C250.56 327.091 250.914 326.737 250.914 326.301V320.512C250.914 320.075 250.56 319.722 250.124 319.722Z" fill="black"/>
<path opacity="0.1" d="M203.4 333.79H184.335C183.899 333.79 183.545 334.144 183.545 334.58V340.369C183.545 340.805 183.899 341.159 184.335 341.159H203.4C203.836 341.159 204.19 340.805 204.19 340.369V334.58C204.19 334.144 203.836 333.79 203.4 333.79Z" fill="black"/>
<path opacity="0.1" d="M226.762 333.79H207.697C207.261 333.79 206.907 334.144 206.907 334.58V340.369C206.907 340.805 207.261 341.159 207.697 341.159H226.762C227.199 341.159 227.552 340.805 227.552 340.369V334.58C227.552 334.144 227.199 333.79 226.762 333.79Z" fill="black"/>
<path opacity="0.1" d="M250.124 333.79H231.059C230.622 333.79 230.269 334.144 230.269 334.58V340.369C230.269 340.805 230.622 341.159 231.059 341.159H250.124C250.56 341.159 250.914 340.805 250.914 340.369V334.58C250.914 334.144 250.56 333.79 250.124 333.79Z" fill="black"/>
<path opacity="0.1" d="M203.4 349.31H184.335C183.899 349.31 183.545 349.663 183.545 350.1V355.889C183.545 356.325 183.899 356.679 184.335 356.679H203.4C203.836 356.679 204.19 356.325 204.19 355.889V350.1C204.19 349.663 203.836 349.31 203.4 349.31Z" fill="black"/>
<path opacity="0.1" d="M226.762 349.31H207.697C207.261 349.31 206.907 349.663 206.907 350.1V355.889C206.907 356.325 207.261 356.679 207.697 356.679H226.762C227.199 356.679 227.552 356.325 227.552 355.889V350.1C227.552 349.663 227.199 349.31 226.762 349.31Z" fill="black"/>
<path opacity="0.1" d="M250.124 349.31H231.059C230.622 349.31 230.269 349.663 230.269 350.1V355.889C230.269 356.325 230.622 356.679 231.059 356.679H250.124C250.56 356.679 250.914 356.325 250.914 355.889V350.1C250.914 349.663 250.56 349.31 250.124 349.31Z" fill="black"/>
<path opacity="0.1" d="M273.496 319.722H254.431C253.994 319.722 253.641 320.075 253.641 320.512V326.301C253.641 326.737 253.994 327.091 254.431 327.091H273.496C273.932 327.091 274.286 326.737 274.286 326.301V320.512C274.286 320.075 273.932 319.722 273.496 319.722Z" fill="black"/>
<path opacity="0.1" d="M271.235 332.998H256.877C255.789 332.998 254.907 333.88 254.907 334.968V357.292C254.907 358.38 255.789 359.262 256.877 359.262H271.235C272.323 359.262 273.205 358.38 273.205 357.292V334.968C273.205 333.88 272.323 332.998 271.235 332.998Z" fill="black"/>
</g>
<path d="M203.4 303.842H184.335C183.899 303.842 183.545 304.195 183.545 304.632V310.421C183.545 310.857 183.899 311.211 184.335 311.211H203.4C203.836 311.211 204.19 310.857 204.19 310.421V304.632C204.19 304.195 203.836 303.842 203.4 303.842Z" fill="white"/>
<path d="M226.762 303.842H207.697C207.261 303.842 206.907 304.195 206.907 304.632V310.421C206.907 310.857 207.261 311.211 207.697 311.211H226.762C227.199 311.211 227.552 310.857 227.552 310.421V304.632C227.552 304.195 227.199 303.842 226.762 303.842Z" fill="white"/>
<path d="M250.124 303.842H231.059C230.622 303.842 230.269 304.195 230.269 304.632V310.421C230.269 310.857 230.622 311.211 231.059 311.211H250.124C250.56 311.211 250.914 310.857 250.914 310.421V304.632C250.914 304.195 250.56 303.842 250.124 303.842Z" fill="white"/>
<path d="M273.496 303.842H254.431C253.994 303.842 253.641 304.195 253.641 304.632V310.421C253.641 310.857 253.994 311.211 254.431 311.211H273.496C273.932 311.211 274.286 310.857 274.286 310.421V304.632C274.286 304.195 273.932 303.842 273.496 303.842Z" fill="#2F2E41"/>
<path d="M203.4 318.271H184.335C183.899 318.271 183.545 318.625 183.545 319.061V324.85C183.545 325.287 183.899 325.64 184.335 325.64H203.4C203.836 325.64 204.19 325.287 204.19 324.85V319.061C204.19 318.625 203.836 318.271 203.4 318.271Z" fill="white"/>
<path d="M226.762 318.271H207.697C207.261 318.271 206.907 318.625 206.907 319.061V324.85C206.907 325.287 207.261 325.64 207.697 325.64H226.762C227.199 325.64 227.552 325.287 227.552 324.85V319.061C227.552 318.625 227.199 318.271 226.762 318.271Z" fill="white"/>
<path d="M250.124 318.271H231.059C230.622 318.271 230.269 318.625 230.269 319.061V324.85C230.269 325.287 230.622 325.64 231.059 325.64H250.124C250.56 325.64 250.914 325.287 250.914 324.85V319.061C250.914 318.625 250.56 318.271 250.124 318.271Z" fill="white"/>
<path d="M203.4 332.339H184.335C183.899 332.339 183.545 332.693 183.545 333.129V338.918C183.545 339.354 183.899 339.708 184.335 339.708H203.4C203.836 339.708 204.19 339.354 204.19 338.918V333.129C204.19 332.693 203.836 332.339 203.4 332.339Z" fill="white"/>
<path d="M226.762 332.339H207.697C207.261 332.339 206.907 332.693 206.907 333.129V338.918C206.907 339.354 207.261 339.708 207.697 339.708H226.762C227.199 339.708 227.552 339.354 227.552 338.918V333.129C227.552 332.693 227.199 332.339 226.762 332.339Z" fill="white"/>
<path d="M250.124 332.339H231.059C230.622 332.339 230.269 332.693 230.269 333.129V338.918C230.269 339.354 230.622 339.708 231.059 339.708H250.124C250.56 339.708 250.914 339.354 250.914 338.918V333.129C250.914 332.693 250.56 332.339 250.124 332.339Z" fill="white"/>
<path d="M203.4 347.859H184.335C183.899 347.859 183.545 348.213 183.545 348.649V354.438C183.545 354.875 183.899 355.228 184.335 355.228H203.4C203.836 355.228 204.19 354.875 204.19 354.438V348.649C204.19 348.213 203.836 347.859 203.4 347.859Z" fill="white"/>
<path d="M226.762 347.859H207.697C207.261 347.859 206.907 348.213 206.907 348.649V354.438C206.907 354.875 207.261 355.228 207.697 355.228H226.762C227.199 355.228 227.552 354.875 227.552 354.438V348.649C227.552 348.213 227.199 347.859 226.762 347.859Z" fill="white"/>
<path d="M250.124 347.859H231.059C230.622 347.859 230.269 348.213 230.269 348.649V354.438C230.269 354.875 230.622 355.228 231.059 355.228H250.124C250.56 355.228 250.914 354.875 250.914 354.438V348.649C250.914 348.213 250.56 347.859 250.124 347.859Z" fill="white"/>
<path d="M273.496 318.271H254.431C253.994 318.271 253.641 318.625 253.641 319.061V324.85C253.641 325.287 253.994 325.64 254.431 325.64H273.496C273.932 325.64 274.286 325.287 274.286 324.85V319.061C274.286 318.625 273.932 318.271 273.496 318.271Z" fill="#2F2E41"/>
<path d="M271.235 331.558H256.877C255.789 331.558 254.907 332.44 254.907 333.528V355.852C254.907 356.94 255.789 357.822 256.877 357.822H271.235C272.323 357.822 273.205 356.94 273.205 355.852V333.528C273.205 332.44 272.323 331.558 271.235 331.558Z" fill="#42ADFF"/>
<path d="M238.677 285.791H228.787V286.975H238.677V285.791Z" fill="white"/>
<path d="M252.529 285.791H242.639V286.975H252.529V285.791Z" fill="white"/>
<path d="M266.382 285.791H256.492V286.975H266.382V285.791Z" fill="white"/>
</g>
<defs>
<clipPath id="clip0">
<rect width="712.946" height="771.135" fill="white" transform="translate(0 56)"/>
</clipPath>
</defs>
</svg>
